<?xml version="1.0" encoding="UTF-8"?>
<svg xmlns="http://www.w3.org/2000/svg" xmlns:xlink="http://www.w3.org/1999/xlink" width="25pt" height="25pt" viewBox="0 0 25 25" version="1.1">
<g id="surface1">
<path style=" stroke:none;fill-rule:nonzero;fill:#FFFFFF;fill-opacity:1;" d="M 19.742188 24.109375 C 19.644531 24.109375 19.542969 24.058594 19.496094 24.007813 L 12.402344 19.496094 L 5.308594 24.058594 C 5.15625 24.15625 4.910156 24.15625 4.761719 24.058594 C 4.613281 23.957031 4.515625 23.710938 4.5625 23.511719 L 6.746094 15.378906 L 0.199219 10.019531 C 0 9.871094 -0.0507813 9.671875 0 9.476563 C 0.0507813 9.277344 0.246094 9.125 0.445313 9.125 L 8.878906 8.679688 L 11.957031 0.792969 C 12.003906 0.644531 12.203125 0.496094 12.402344 0.496094 C 12.597656 0.496094 12.796875 0.644531 12.847656 0.792969 L 15.921875 8.679688 L 24.355469 9.125 C 24.554688 9.125 24.75 9.277344 24.800781 9.476563 C 24.851563 9.671875 24.800781 9.871094 24.652344 10.019531 L 18.054688 15.378906 L 20.1875 23.511719 C 20.238281 23.710938 20.1875 23.910156 19.992188 24.058594 C 19.941406 24.058594 19.839844 24.109375 19.742188 24.109375 Z M 12.402344 18.402344 C 12.402344 18.402344 12.597656 18.453125 12.648438 18.503906 L 18.898438 22.519531 L 17.015625 15.328125 C 16.964844 15.128906 17.015625 14.929688 17.164063 14.832031 L 22.964844 10.070313 L 15.527344 9.671875 C 15.328125 9.671875 15.179688 9.523438 15.078125 9.375 L 12.402344 2.382813 Z "/>
</g>
</svg>
