<?xml version="1.0" encoding="UTF-8"?>
<svg xmlns="http://www.w3.org/2000/svg" xmlns:xlink="http://www.w3.org/1999/xlink" width="25pt" height="25pt" viewBox="0 0 25 25" version="1.1">
<g id="surface1">
<path style=" stroke:none;fill-rule:nonzero;fill:#FFFFFF;fill-opacity:1;" d="M 19.691406 23.425781 C 19.597656 23.425781 19.507813 23.402344 19.425781 23.347656 L 12.402344 18.9375 L 5.375 23.347656 C 5.203125 23.457031 4.984375 23.449219 4.820313 23.332031 C 4.65625 23.210938 4.582031 23.003906 4.632813 22.808594 L 6.652344 14.765625 L 0.289063 9.445313 C 0.132813 9.316406 0.0742188 9.105469 0.136719 8.910156 C 0.199219 8.71875 0.371094 8.582031 0.574219 8.570313 L 8.847656 8.007813 L 11.941406 0.3125 C 12.015625 0.125 12.199219 0 12.402344 0 C 12.601563 0 12.785156 0.125 12.863281 0.3125 L 15.953125 8.007813 L 24.226563 8.570313 C 24.429688 8.582031 24.605469 8.71875 24.664063 8.910156 C 24.726563 9.105469 24.667969 9.3125 24.511719 9.445313 L 18.148438 14.765625 L 20.171875 22.808594 C 20.222656 23.003906 20.144531 23.210938 19.980469 23.332031 C 19.894531 23.394531 19.792969 23.425781 19.691406 23.425781 Z "/>
</g>
</svg>
