<?xml version="1.0" encoding="UTF-8"?>
<svg xmlns="http://www.w3.org/2000/svg" xmlns:xlink="http://www.w3.org/1999/xlink" width="25pt" height="25pt" viewBox="0 0 25 25" version="1.1">
<g id="surface1">
<path style=" stroke:none;fill-rule:nonzero;fill:#FFFFFF;fill-opacity:1;" d="M 12.402344 0.992188 C 6.109375 0.992188 0.992188 6.109375 0.992188 12.402344 C 0.992188 18.691406 6.109375 23.808594 12.402344 23.808594 C 18.691406 23.808594 23.808594 18.691406 23.808594 12.402344 C 23.808594 6.109375 18.691406 0.992188 12.402344 0.992188 Z M 5.09375 10.753906 C 4.90625 10.554688 4.917969 10.242188 5.117188 10.054688 C 5.164063 10.011719 6.332031 8.929688 7.9375 8.929688 C 9.539063 8.929688 10.707031 10.011719 10.757813 10.054688 C 10.957031 10.242188 10.964844 10.554688 10.777344 10.753906 C 10.679688 10.859375 10.546875 10.914063 10.417969 10.914063 C 10.292969 10.914063 10.175781 10.867188 10.078125 10.777344 C 10.066406 10.769531 9.140625 9.921875 7.9375 9.921875 C 6.734375 9.921875 5.804688 10.769531 5.796875 10.777344 C 5.59375 10.964844 5.28125 10.953125 5.09375 10.753906 Z M 12.402344 19.839844 C 7.257813 19.839844 5.953125 13.394531 5.953125 13.394531 C 5.953125 13.394531 8.53125 14.882813 12.402344 14.882813 C 16.269531 14.882813 18.847656 13.394531 18.847656 13.394531 C 18.847656 13.394531 17.542969 19.839844 12.402344 19.839844 Z M 19.707031 10.757813 C 19.609375 10.859375 19.476563 10.914063 19.34375 10.914063 C 19.222656 10.914063 19.101563 10.867188 19.003906 10.777344 C 18.996094 10.769531 18.066406 9.921875 16.863281 9.921875 C 15.660156 9.921875 14.734375 10.769531 14.722656 10.777344 C 14.523438 10.964844 14.210938 10.953125 14.023438 10.753906 C 13.835938 10.554688 13.847656 10.242188 14.046875 10.054688 C 14.09375 10.011719 15.261719 8.929688 16.863281 8.929688 C 18.46875 8.929688 19.636719 10.011719 19.683594 10.054688 C 19.882813 10.242188 19.894531 10.554688 19.707031 10.757813 Z "/>
</g>
</svg>
