<?xml version="1.0" encoding="UTF-8"?>
<svg xmlns="http://www.w3.org/2000/svg" xmlns:xlink="http://www.w3.org/1999/xlink" width="25pt" height="25pt" viewBox="0 0 25 25" version="1.1">
<g id="surface1">
<path style=" stroke:none;fill-rule:nonzero;fill:#FFFFFF;fill-opacity:1;" d="M 14.816406 1.492188 C 14.761719 1.5 14.710938 1.515625 14.660156 1.539063 C 14.234375 1.75 13.75 2.378906 13.65625 2.5 C 13.652344 2.507813 13.644531 2.515625 13.640625 2.523438 C 13.164063 3.242188 12.90625 4.082031 12.898438 4.953125 C 12.890625 5.609375 13.019531 6.257813 13.277344 6.882813 C 13.882813 8.335938 15.136719 9.535156 16.632813 10.097656 C 16.683594 10.117188 16.730469 10.132813 16.820313 10.164063 C 16.828125 10.167969 16.898438 10.191406 16.910156 10.195313 L 16.964844 10.214844 C 17.042969 10.238281 17.121094 10.261719 17.199219 10.277344 C 17.59375 10.359375 17.976563 10.402344 18.335938 10.414063 C 18.398438 10.414063 18.460938 10.417969 18.523438 10.417969 C 21.242188 10.417969 22.296875 8.5 22.648438 7.859375 C 22.683594 7.796875 22.707031 7.746094 22.730469 7.714844 C 22.730469 7.714844 22.730469 7.714844 22.730469 7.710938 C 22.886719 7.484375 22.828125 7.175781 22.601563 7.023438 C 22.375 6.867188 22.066406 6.925781 21.914063 7.152344 C 21.914063 7.152344 21.910156 7.152344 21.910156 7.152344 C 21.1875 8.222656 19.945313 8.546875 18.226563 8.117188 C 18.097656 8.085938 17.960938 8.039063 17.835938 7.992188 C 17.671875 7.933594 17.511719 7.867188 17.359375 7.792969 C 17.058594 7.644531 16.777344 7.464844 16.519531 7.269531 C 15.007813 6.097656 14.417969 3.65625 15.300781 2.246094 C 15.417969 2.058594 15.398438 1.816406 15.25 1.652344 C 15.136719 1.527344 14.972656 1.46875 14.816406 1.492188 Z M 10.421875 2.480469 C 10.308594 2.476563 10.195313 2.515625 10.101563 2.59375 C 9.351563 3.203125 8.582031 4.203125 8.550781 4.242188 C 8.546875 4.25 8.542969 4.257813 8.539063 4.265625 C 7.179688 6.238281 7.078125 9.046875 8.277344 11.421875 C 8.464844 11.796875 8.679688 12.15625 8.90625 12.484375 L 8.972656 12.582031 C 9.164063 12.863281 9.378906 13.183594 9.65625 13.429688 C 9.75 13.539063 9.851563 13.644531 9.953125 13.742188 L 10.003906 13.792969 L 10.042969 13.835938 C 10.144531 13.933594 10.25 14.035156 10.359375 14.132813 C 10.367188 14.144531 10.378906 14.152344 10.390625 14.160156 C 10.511719 14.269531 10.636719 14.371094 10.800781 14.5 L 10.84375 14.535156 C 10.972656 14.636719 11.101563 14.734375 11.234375 14.828125 C 11.25 14.839844 11.261719 14.847656 11.277344 14.859375 C 11.324219 14.890625 11.371094 14.917969 11.417969 14.949219 L 11.464844 14.980469 L 11.515625 15.015625 C 11.617188 15.082031 11.714844 15.140625 11.851563 15.222656 C 11.941406 15.277344 12.035156 15.332031 12.097656 15.363281 C 12.125 15.378906 12.152344 15.390625 12.21875 15.429688 L 12.371094 15.507813 C 12.378906 15.511719 12.414063 15.527344 12.421875 15.53125 C 12.519531 15.582031 12.625 15.628906 12.726563 15.675781 L 12.882813 15.746094 C 12.984375 15.792969 13.089844 15.835938 13.21875 15.882813 L 13.277344 15.902344 C 13.28125 15.90625 13.328125 15.925781 13.332031 15.925781 C 13.425781 15.960938 13.519531 15.992188 13.617188 16.023438 L 13.832031 16.097656 C 13.941406 16.132813 14.066406 16.175781 14.203125 16.199219 C 14.882813 16.3125 15.539063 16.367188 16.160156 16.367188 C 16.234375 16.367188 16.308594 16.367188 16.378906 16.367188 C 21.855469 16.246094 23.277344 11.59375 23.292969 11.546875 C 23.359375 11.3125 23.25 11.0625 23.027344 10.960938 C 22.808594 10.855469 22.542969 10.929688 22.40625 11.128906 C 21.019531 13.15625 18.394531 14.011719 15.722656 13.308594 C 15.601563 13.277344 15.480469 13.242188 15.332031 13.191406 C 15.304688 13.183594 15.285156 13.179688 15.242188 13.164063 C 15.15625 13.136719 15.070313 13.105469 14.972656 13.070313 L 14.835938 13.015625 C 14.757813 12.984375 14.675781 12.953125 14.582031 12.914063 L 14.515625 12.882813 C 14.398438 12.832031 14.285156 12.777344 14.179688 12.726563 L 13.898438 12.578125 C 13.835938 12.546875 13.777344 12.511719 13.691406 12.460938 L 13.644531 12.433594 L 13.59375 12.40625 C 13.523438 12.363281 13.449219 12.316406 13.386719 12.269531 L 13.339844 12.242188 C 13.335938 12.238281 13.296875 12.210938 13.292969 12.207031 C 13.234375 12.171875 13.179688 12.136719 13.125 12.101563 C 13.003906 12.015625 12.886719 11.925781 12.746094 11.816406 L 12.695313 11.773438 C 11.414063 10.75 10.46875 9.386719 10.023438 7.925781 C 9.613281 6.582031 9.917969 4.824219 10.84375 3.222656 C 10.964844 3.015625 10.921875 2.753906 10.738281 2.597656 C 10.644531 2.519531 10.53125 2.480469 10.421875 2.480469 Z M 4.960938 3.96875 C 4.84375 3.96875 4.722656 4.011719 4.628906 4.097656 C 3.679688 4.945313 2.972656 6.050781 2.894531 6.175781 C 0.867188 9.125 1.257813 13.710938 2.652344 16.515625 C 2.679688 16.574219 2.707031 16.628906 2.734375 16.6875 L 2.753906 16.71875 C 2.78125 16.773438 2.808594 16.832031 2.820313 16.84375 C 2.835938 16.878906 2.859375 16.921875 2.867188 16.933594 C 2.890625 16.980469 2.914063 17.023438 2.957031 17.097656 L 3.117188 17.371094 C 3.140625 17.40625 3.164063 17.445313 3.171875 17.460938 C 3.199219 17.511719 3.234375 17.5625 3.265625 17.613281 L 3.34375 17.738281 C 3.367188 17.777344 3.390625 17.808594 3.40625 17.828125 C 3.484375 17.949219 3.5625 18.066406 3.648438 18.183594 C 3.652344 18.1875 3.65625 18.191406 3.660156 18.195313 L 3.6875 18.238281 C 3.757813 18.339844 3.832031 18.4375 3.894531 18.515625 L 4.175781 18.875 C 4.179688 18.878906 4.210938 18.914063 4.214844 18.917969 L 4.253906 18.964844 C 4.339844 19.070313 4.429688 19.175781 4.523438 19.277344 C 4.535156 19.289063 4.550781 19.304688 4.5625 19.320313 C 4.648438 19.414063 4.738281 19.511719 4.832031 19.609375 L 4.921875 19.695313 C 4.996094 19.773438 5.070313 19.847656 5.144531 19.917969 C 5.144531 19.921875 5.183594 19.957031 5.183594 19.957031 L 5.261719 20.027344 C 5.355469 20.117188 5.449219 20.207031 5.523438 20.265625 C 5.527344 20.273438 5.597656 20.332031 5.605469 20.335938 C 5.695313 20.417969 5.785156 20.496094 5.878906 20.570313 L 6.351563 20.949219 C 6.433594 21.003906 6.515625 21.0625 6.605469 21.132813 C 6.636719 21.15625 6.671875 21.179688 6.703125 21.199219 C 6.71875 21.210938 6.734375 21.222656 6.742188 21.230469 L 7.097656 21.46875 C 7.230469 21.550781 7.359375 21.632813 7.519531 21.726563 L 7.601563 21.773438 C 7.703125 21.832031 7.804688 21.890625 7.898438 21.941406 C 7.953125 21.972656 8.011719 22 8.058594 22.023438 C 8.125 22.0625 8.199219 22.101563 8.3125 22.15625 C 8.320313 22.164063 8.402344 22.203125 8.410156 22.207031 C 8.523438 22.261719 8.636719 22.3125 8.78125 22.378906 C 8.78125 22.378906 8.828125 22.402344 8.828125 22.402344 C 8.960938 22.457031 9.085938 22.511719 9.257813 22.578125 C 9.28125 22.589844 9.308594 22.601563 9.316406 22.601563 C 9.4375 22.648438 9.5625 22.695313 9.664063 22.730469 C 9.675781 22.734375 9.726563 22.757813 9.738281 22.761719 C 9.875 22.808594 10.011719 22.851563 10.183594 22.90625 C 10.214844 22.917969 10.246094 22.925781 10.25 22.925781 L 10.347656 22.957031 C 10.46875 22.992188 10.585938 23.03125 10.71875 23.058594 C 11.640625 23.226563 12.539063 23.3125 13.394531 23.3125 C 20.5 23.3125 22.761719 17.59375 22.785156 17.539063 C 22.875 17.308594 22.777344 17.046875 22.5625 16.925781 C 22.347656 16.808594 22.078125 16.863281 21.925781 17.0625 C 20.101563 19.460938 16.664063 20.351563 12.726563 19.449219 C 12.632813 19.425781 12.535156 19.398438 12.441406 19.367188 L 12.253906 19.3125 C 12.128906 19.273438 12 19.230469 11.878906 19.1875 C 11.878906 19.1875 11.820313 19.167969 11.820313 19.167969 C 11.714844 19.128906 11.605469 19.085938 11.507813 19.050781 L 11.402344 19.007813 C 11.28125 18.960938 11.160156 18.910156 11.042969 18.855469 L 10.976563 18.828125 C 10.871094 18.78125 10.769531 18.734375 10.671875 18.683594 C 10.664063 18.679688 10.582031 18.640625 10.574219 18.636719 C 10.503906 18.601563 10.4375 18.566406 10.347656 18.519531 L 9.941406 18.300781 C 9.902344 18.273438 9.859375 18.25 9.816406 18.226563 C 9.695313 18.152344 9.570313 18.074219 9.445313 17.996094 C 9.417969 17.980469 9.390625 17.960938 9.34375 17.925781 C 9.257813 17.871094 9.175781 17.816406 9.050781 17.730469 L 9.003906 17.695313 C 8.921875 17.636719 8.839844 17.578125 8.773438 17.527344 C 8.730469 17.496094 8.6875 17.460938 8.617188 17.40625 C 8.554688 17.359375 8.492188 17.3125 8.433594 17.265625 L 8.324219 17.175781 C 8.234375 17.101563 8.148438 17.027344 8.058594 16.949219 C 8.050781 16.9375 8.039063 16.929688 8.027344 16.921875 C 7.925781 16.832031 7.824219 16.738281 7.707031 16.625 L 7.355469 16.277344 C 7.269531 16.1875 7.183594 16.101563 7.085938 15.992188 C 7 15.894531 6.914063 15.796875 6.800781 15.660156 L 6.589844 15.402344 C 6.566406 15.367188 6.539063 15.332031 6.503906 15.292969 C 6.433594 15.195313 6.359375 15.101563 6.289063 15 C 4.359375 12.339844 3.855469 6.792969 5.359375 4.757813 C 5.511719 4.554688 5.484375 4.269531 5.292969 4.097656 C 5.199219 4.011719 5.082031 3.96875 4.960938 3.96875 Z "/>
</g>
</svg>
