<?xml version="1.0" encoding="UTF-8"?>
<svg xmlns="http://www.w3.org/2000/svg" xmlns:xlink="http://www.w3.org/1999/xlink" width="25pt" height="25pt" viewBox="0 0 25 25" version="1.1">
<g id="surface1">
<path style=" stroke:none;fill-rule:nonzero;fill:#FFFFFF;fill-opacity:1;" d="M 2.621094 0.992188 C 2.363281 1.039063 2.1875 1.277344 2.214844 1.535156 L 3.96875 21.097656 C 3.992188 21.296875 4.132813 21.460938 4.324219 21.515625 L 12.261719 23.792969 C 12.351563 23.820313 12.449219 23.820313 12.539063 23.792969 L 20.476563 21.515625 C 20.667969 21.460938 20.808594 21.296875 20.832031 21.097656 L 22.585938 1.535156 C 22.597656 1.394531 22.550781 1.257813 22.457031 1.152344 C 22.363281 1.050781 22.226563 0.992188 22.089844 0.992188 L 2.710938 0.992188 C 2.695313 0.992188 2.683594 0.992188 2.667969 0.992188 C 2.652344 0.992188 2.636719 0.992188 2.621094 0.992188 Z M 3.253906 1.984375 L 21.546875 1.984375 L 19.886719 20.664063 L 12.402344 22.785156 L 4.914063 20.664063 Z M 6.214844 4.992188 C 5.960938 5.039063 5.785156 5.277344 5.8125 5.535156 L 6.480469 12.867188 C 6.496094 13.121094 6.703125 13.324219 6.960938 13.332031 L 14.882813 13.332031 L 14.664063 15.609375 L 12.417969 16.089844 L 10.136719 15.609375 L 10.058594 14.804688 C 10.042969 14.542969 9.824219 14.339844 9.5625 14.339844 L 7.144531 14.339844 C 7.007813 14.339844 6.871094 14.398438 6.777344 14.5 C 6.683594 14.605469 6.636719 14.742188 6.648438 14.882813 L 6.929688 17.917969 C 6.945313 18.117188 7.078125 18.292969 7.269531 18.351563 L 12.199219 19.855469 L 12.261719 19.871094 C 12.351563 19.898438 12.449219 19.898438 12.539063 19.871094 L 17.53125 18.351563 C 17.730469 18.296875 17.871094 18.125 17.886719 17.917969 L 18.539063 10.464844 C 18.554688 10.324219 18.507813 10.191406 18.417969 10.085938 C 18.324219 9.984375 18.195313 9.925781 18.058594 9.921875 L 9.609375 9.921875 L 9.488281 8.386719 L 18.277344 8.386719 C 18.535156 8.386719 18.75 8.191406 18.773438 7.9375 L 18.988281 5.535156 C 19.003906 5.394531 18.957031 5.257813 18.859375 5.152344 C 18.765625 5.050781 18.632813 4.992188 18.492188 4.992188 L 6.308594 4.992188 C 6.277344 4.988281 6.246094 4.988281 6.214844 4.992188 Z M 6.851563 5.984375 L 17.949219 5.984375 L 17.824219 7.394531 L 8.945313 7.394531 C 8.804688 7.394531 8.671875 7.453125 8.574219 7.554688 C 8.480469 7.660156 8.433594 7.796875 8.449219 7.9375 L 8.679688 10.464844 C 8.703125 10.714844 8.910156 10.90625 9.160156 10.914063 L 17.515625 10.914063 L 16.925781 17.5 L 12.402344 18.863281 L 7.875 17.5 L 7.6875 15.332031 L 9.113281 15.332031 L 9.175781 16.058594 C 9.191406 16.277344 9.347656 16.460938 9.5625 16.507813 L 12.324219 17.082031 C 12.390625 17.09375 12.457031 17.09375 12.523438 17.082031 L 15.238281 16.507813 C 15.453125 16.460938 15.609375 16.277344 15.625 16.058594 L 15.917969 12.867188 C 15.925781 12.726563 15.878906 12.59375 15.785156 12.496094 C 15.691406 12.394531 15.5625 12.339844 15.421875 12.339844 L 7.410156 12.339844 Z "/>
</g>
</svg>
