<?xml version="1.0" encoding="UTF-8"?>
<svg xmlns="http://www.w3.org/2000/svg" xmlns:xlink="http://www.w3.org/1999/xlink" width="25pt" height="25pt" viewBox="0 0 25 25" version="1.1">
<g id="surface1">
<path style=" stroke:none;fill-rule:nonzero;fill:#FFFFFF;fill-opacity:1;" d="M 12.402344 5.953125 C 5.726563 5.953125 0.496094 8.785156 0.496094 12.402344 C 0.496094 16.015625 5.726563 18.847656 12.402344 18.847656 C 19.074219 18.847656 24.304688 16.015625 24.304688 12.402344 C 24.304688 8.785156 19.074219 5.953125 12.402344 5.953125 Z M 11.164063 7.9375 L 12.464844 7.9375 L 12.050781 9.921875 L 13.210938 9.921875 C 13.949219 9.921875 14.441406 10.023438 14.722656 10.28125 C 15 10.535156 15.082031 10.953125 14.972656 11.519531 L 14.457031 13.890625 L 13.136719 13.890625 L 13.609375 11.699219 C 13.667969 11.398438 13.644531 11.1875 13.542969 11.078125 C 13.441406 10.96875 13.222656 10.914063 12.890625 10.914063 L 11.851563 10.914063 L 11.222656 13.890625 L 9.921875 13.890625 Z M 5.457031 9.921875 L 8.101563 9.921875 C 9.363281 9.921875 10.125 10.765625 9.828125 12.027344 C 9.480469 13.492188 8.550781 13.890625 6.839844 13.890625 L 6.023438 13.890625 L 5.765625 15.378906 L 4.449219 15.378906 Z M 15.871094 9.921875 L 18.519531 9.921875 C 19.777344 9.921875 20.542969 10.765625 20.246094 12.027344 C 19.898438 13.492188 18.96875 13.890625 17.257813 13.890625 L 16.441406 13.890625 L 16.179688 15.378906 L 14.867188 15.378906 Z M 6.582031 10.914063 L 6.207031 12.898438 L 7.058594 12.898438 C 7.792969 12.898438 8.472656 12.8125 8.585938 11.71875 C 8.628906 11.292969 8.453125 10.914063 7.605469 10.914063 Z M 17 10.914063 L 16.625 12.898438 L 17.472656 12.898438 C 18.207031 12.898438 18.890625 12.8125 19.003906 11.71875 C 19.046875 11.292969 18.871094 10.914063 18.023438 10.914063 Z "/>
</g>
</svg>
