<?xml version="1.0" encoding="UTF-8"?>
<svg xmlns="http://www.w3.org/2000/svg" xmlns:xlink="http://www.w3.org/1999/xlink" width="25pt" height="25pt" viewBox="0 0 25 25" version="1.1">
<g id="surface1">
<path style=" stroke:none;fill-rule:evenodd;fill:#FFFFFF;fill-opacity:1;" d="M 19.34375 19.839844 L 12.402344 21.824219 L 5.457031 19.839844 L 3.96875 2.976563 L 20.832031 2.976563 C 20.335938 8.597656 19.839844 14.21875 19.34375 19.839844 Z M 19.75 3.96875 L 5.050781 3.96875 L 6.382813 19.074219 L 12.402344 20.792969 L 18.417969 19.074219 Z M 8.332031 13.890625 L 10.316406 13.890625 L 10.367188 15.128906 L 12.402344 15.824219 L 14.433594 15.128906 L 14.582031 12.898438 L 10.21875 12.898438 L 10.117188 10.914063 L 14.683594 10.914063 L 14.832031 8.929688 L 7.988281 8.929688 L 7.835938 6.945313 L 16.914063 6.945313 L 16.667969 10.914063 L 16.320313 16.617188 L 12.402344 17.90625 L 8.484375 16.617188 Z "/>
</g>
</svg>
