<?xml version="1.0" encoding="UTF-8"?>
<svg xmlns="http://www.w3.org/2000/svg" xmlns:xlink="http://www.w3.org/1999/xlink" width="25pt" height="25pt" viewBox="0 0 25 25" version="1.1">
<g id="surface1">
<path style=" stroke:none;fill-rule:evenodd;fill:#FFFFFF;fill-opacity:1;" d="M 17.140625 1.976563 C 16.753906 1.960938 16.347656 2.03125 15.941406 2.164063 C 15.132813 2.425781 14.28125 2.9375 13.410156 3.648438 C 13.066406 3.925781 12.71875 4.246094 12.375 4.582031 C 12.035156 4.253906 11.699219 3.941406 11.363281 3.671875 C 10.492188 2.960938 9.640625 2.449219 8.832031 2.1875 C 8.023438 1.925781 7.214844 1.917969 6.554688 2.296875 C 5.890625 2.679688 5.496094 3.382813 5.320313 4.214844 C 5.140625 5.046875 5.160156 6.039063 5.339844 7.148438 C 5.398438 7.535156 5.488281 7.9375 5.589844 8.351563 C 5.210938 8.464844 4.84375 8.585938 4.503906 8.71875 C 3.476563 9.121094 2.625 9.601563 2.007813 10.171875 C 1.386719 10.742188 0.988281 11.4375 0.988281 12.199219 C 0.988281 12.960938 1.386719 13.65625 2.007813 14.222656 C 2.625 14.796875 3.476563 15.277344 4.503906 15.679688 C 4.867188 15.820313 5.261719 15.949219 5.667969 16.070313 C 5.523438 16.617188 5.402344 17.148438 5.324219 17.652344 C 5.144531 18.761719 5.128906 19.753906 5.304688 20.589844 C 5.480469 21.425781 5.878906 22.128906 6.542969 22.511719 C 7.207031 22.898438 8.019531 22.886719 8.828125 22.625 C 9.640625 22.363281 10.492188 21.847656 11.363281 21.140625 C 11.703125 20.863281 12.046875 20.546875 12.390625 20.214844 C 12.734375 20.550781 13.078125 20.867188 13.417969 21.144531 C 14.292969 21.855469 15.140625 22.367188 15.949219 22.628906 C 16.761719 22.890625 17.566406 22.898438 18.230469 22.515625 C 18.890625 22.136719 19.285156 21.433594 19.460938 20.601563 C 19.640625 19.769531 19.621094 18.777344 19.441406 17.667969 C 19.359375 17.164063 19.242188 16.628906 19.09375 16.082031 C 19.515625 15.957031 19.921875 15.828125 20.296875 15.679688 C 21.324219 15.277344 22.175781 14.796875 22.792969 14.222656 C 23.414063 13.65625 23.816406 12.960938 23.816406 12.199219 C 23.816406 11.4375 23.414063 10.742188 22.792969 10.171875 C 22.175781 9.601563 21.324219 9.121094 20.296875 8.71875 C 19.953125 8.582031 19.578125 8.460938 19.195313 8.347656 C 19.296875 7.929688 19.386719 7.523438 19.449219 7.136719 C 19.628906 6.027344 19.644531 5.03125 19.46875 4.195313 C 19.289063 3.363281 18.894531 2.660156 18.230469 2.273438 C 17.894531 2.082031 17.527344 1.988281 17.140625 1.976563 Z M 17.09375 2.984375 C 17.335938 2.992188 17.546875 3.050781 17.722656 3.152344 C 18.074219 3.359375 18.335938 3.753906 18.476563 4.410156 C 18.617188 5.066406 18.613281 5.949219 18.445313 6.976563 C 18.390625 7.328125 18.308594 7.699219 18.214844 8.082031 C 17.199219 7.835938 16.089844 7.65625 14.902344 7.550781 C 14.308594 6.726563 13.699219 5.976563 13.082031 5.308594 C 13.410156 4.992188 13.730469 4.691406 14.046875 4.4375 C 14.855469 3.78125 15.617188 3.335938 16.253906 3.128906 C 16.574219 3.023438 16.851563 2.980469 17.09375 2.984375 Z M 7.679688 2.988281 C 7.925781 2.980469 8.207031 3.027344 8.527344 3.132813 C 9.164063 3.335938 9.929688 3.785156 10.734375 4.441406 C 11.042969 4.691406 11.363281 4.984375 11.679688 5.292969 C 11.058594 5.964844 10.445313 6.722656 9.84375 7.554688 C 8.664063 7.664063 7.558594 7.84375 6.550781 8.089844 C 6.457031 7.710938 6.371094 7.339844 6.316406 6.992188 C 6.152344 5.964844 6.148438 5.078125 6.289063 4.421875 C 6.429688 3.765625 6.691406 3.363281 7.050781 3.160156 C 7.230469 3.054688 7.4375 2.996094 7.679688 2.988281 Z M 12.390625 6.023438 C 12.792969 6.460938 13.195313 6.945313 13.597656 7.460938 C 13.203125 7.445313 12.804688 7.433594 12.402344 7.433594 C 11.988281 7.433594 11.582031 7.445313 11.179688 7.464844 C 11.582031 6.945313 11.984375 6.464844 12.390625 6.023438 Z M 12.402344 8.4375 C 13.074219 8.4375 13.730469 8.464844 14.371094 8.511719 C 14.8125 9.144531 15.242188 9.8125 15.652344 10.523438 C 16.011719 11.148438 16.339844 11.769531 16.632813 12.386719 C 16.335938 13.007813 16.003906 13.640625 15.636719 14.269531 C 15.316406 14.828125 14.980469 15.355469 14.640625 15.867188 C 13.917969 15.925781 13.171875 15.960938 12.402344 15.960938 C 11.613281 15.960938 10.847656 15.925781 10.109375 15.863281 C 9.773438 15.359375 9.445313 14.839844 9.128906 14.292969 C 8.765625 13.660156 8.433594 13.03125 8.136719 12.410156 C 8.4375 11.78125 8.765625 11.148438 9.132813 10.515625 C 9.539063 9.808594 9.96875 9.144531 10.40625 8.515625 C 11.054688 8.464844 11.71875 8.4375 12.402344 8.4375 Z M 15.648438 8.636719 C 16.46875 8.738281 17.234375 8.878906 17.949219 9.050781 C 17.738281 9.746094 17.476563 10.472656 17.160156 11.222656 C 16.953125 10.824219 16.742188 10.425781 16.511719 10.027344 C 16.234375 9.542969 15.941406 9.085938 15.648438 8.636719 Z M 9.097656 8.644531 C 8.8125 9.085938 8.53125 9.535156 8.257813 10.007813 C 8.023438 10.414063 7.808594 10.816406 7.597656 11.214844 C 7.285156 10.472656 7.027344 9.75 6.816406 9.058594 C 7.523438 8.886719 8.289063 8.746094 9.097656 8.644531 Z M 18.929688 9.3125 C 19.28125 9.417969 19.621094 9.53125 19.933594 9.652344 C 20.878906 10.019531 21.628906 10.460938 22.117188 10.910156 C 22.601563 11.355469 22.8125 11.785156 22.8125 12.199219 C 22.8125 12.613281 22.601563 13.042969 22.117188 13.488281 C 21.628906 13.9375 20.878906 14.378906 19.933594 14.746094 C 19.585938 14.882813 19.207031 15.003906 18.808594 15.121094 C 18.53125 14.246094 18.167969 13.339844 17.742188 12.410156 C 18.234375 11.339844 18.632813 10.300781 18.929688 9.3125 Z M 5.855469 9.316406 C 6.148438 10.296875 6.542969 11.328125 7.03125 12.382813 C 6.597656 13.316406 6.234375 14.230469 5.953125 15.109375 C 5.570313 14.996094 5.203125 14.878906 4.867188 14.746094 C 3.921875 14.378906 3.171875 13.9375 2.6875 13.488281 C 2.199219 13.042969 1.988281 12.613281 1.988281 12.199219 C 1.988281 11.785156 2.199219 11.355469 2.6875 10.910156 C 3.171875 10.460938 3.921875 10.019531 4.867188 9.652344 C 5.175781 9.53125 5.507813 9.421875 5.855469 9.316406 Z M 12.402344 9.921875 C 11.035156 9.921875 9.921875 11.035156 9.921875 12.402344 C 9.921875 13.765625 11.035156 14.882813 12.402344 14.882813 C 13.765625 14.882813 14.882813 13.765625 14.882813 12.402344 C 14.882813 11.035156 13.765625 9.921875 12.402344 9.921875 Z M 7.609375 13.574219 C 7.816406 13.976563 8.035156 14.382813 8.269531 14.789063 C 8.453125 15.105469 8.640625 15.414063 8.828125 15.714844 C 8.164063 15.625 7.53125 15.507813 6.9375 15.371094 C 7.125 14.789063 7.351563 14.1875 7.609375 13.574219 Z M 17.171875 13.574219 C 17.433594 14.1875 17.65625 14.792969 17.847656 15.371094 C 17.253906 15.511719 16.617188 15.625 15.949219 15.71875 C 16.140625 15.410156 16.332031 15.101563 16.515625 14.777344 C 16.75 14.375 16.964844 13.972656 17.171875 13.574219 Z M 6.648438 16.332031 C 7.546875 16.542969 8.519531 16.707031 9.550781 16.8125 C 10.242188 17.8125 10.960938 18.707031 11.679688 19.488281 C 11.359375 19.800781 11.039063 20.097656 10.726563 20.351563 C 9.917969 21.007813 9.152344 21.453125 8.519531 21.660156 C 7.878906 21.867188 7.402344 21.839844 7.050781 21.636719 C 6.695313 21.429688 6.433594 21.03125 6.296875 20.378906 C 6.15625 19.722656 6.160156 18.839844 6.324219 17.8125 C 6.398438 17.347656 6.511719 16.847656 6.648438 16.332031 Z M 18.136719 16.335938 C 18.277344 16.855469 18.386719 17.355469 18.460938 17.824219 C 18.628906 18.851563 18.632813 19.738281 18.492188 20.394531 C 18.351563 21.050781 18.089844 21.453125 17.734375 21.660156 C 17.375 21.867188 16.894531 21.890625 16.253906 21.6875 C 15.617188 21.480469 14.851563 21.03125 14.042969 20.375 C 13.730469 20.117188 13.40625 19.820313 13.082031 19.503906 C 13.808594 18.71875 14.53125 17.820313 15.222656 16.816406 C 16.257813 16.710938 17.234375 16.546875 18.136719 16.335938 Z M 10.847656 16.914063 C 11.355469 16.941406 11.871094 16.960938 12.402344 16.960938 C 12.914063 16.960938 13.410156 16.945313 13.90625 16.917969 C 13.402344 17.597656 12.886719 18.21875 12.375 18.773438 C 11.863281 18.214844 11.351563 17.59375 10.847656 16.914063 Z "/>
</g>
</svg>
