<?xml version="1.0" encoding="UTF-8"?>
<svg xmlns="http://www.w3.org/2000/svg" xmlns:xlink="http://www.w3.org/1999/xlink" width="25pt" height="25pt" viewBox="0 0 25 25" version="1.1">
<g id="surface1">
<path style=" stroke:none;fill-rule:nonzero;fill:#FFFFFF;fill-opacity:1;" d="M 5.925781 3.96875 C 5.90625 3.96875 5.882813 3.972656 5.863281 3.976563 L 0.40625 4.96875 C 0.25 4.996094 0.121094 5.097656 0.0507813 5.238281 C -0.0195313 5.378906 -0.015625 5.546875 0.0546875 5.6875 L 6.007813 17.09375 C 6.117188 17.304688 6.355469 17.40625 6.582031 17.34375 L 11.9375 15.855469 L 14.945313 21.082031 C 15.066406 21.289063 15.324219 21.382813 15.550781 21.296875 L 23.984375 18.179688 C 24.128906 18.128906 24.238281 18.011719 24.285156 17.867188 C 24.332031 17.722656 24.308594 17.5625 24.222656 17.4375 L 21.375 13.234375 L 24.4375 12.382813 C 24.59375 12.339844 24.714844 12.222656 24.773438 12.074219 C 24.828125 11.921875 24.804688 11.753906 24.714844 11.625 L 21.988281 7.667969 C 21.867188 7.496094 21.65625 7.414063 21.453125 7.46875 L 17.730469 8.449219 C 17.578125 8.492188 17.449219 8.601563 17.390625 8.753906 C 17.335938 8.90625 17.355469 9.074219 17.445313 9.207031 L 19.777344 12.648438 L 12.414063 14.691406 L 6.378906 4.214844 C 6.289063 4.054688 6.113281 3.957031 5.925781 3.96875 Z M 5.695313 5.015625 L 11.425781 14.964844 L 6.703125 16.28125 L 1.246094 5.824219 Z M 21.367188 8.519531 L 23.5 11.613281 L 20.785156 12.367188 L 18.660156 9.230469 Z M 20.367188 13.515625 L 23.046875 17.46875 L 15.597656 20.222656 L 12.925781 15.582031 Z "/>
</g>
</svg>
