<?xml version="1.0" encoding="UTF-8"?>
<svg xmlns="http://www.w3.org/2000/svg" xmlns:xlink="http://www.w3.org/1999/xlink" width="25pt" height="25pt" viewBox="0 0 25 25" version="1.1">
<g id="surface1">
<path style=" stroke:none;fill-rule:nonzero;fill:#FFFFFF;fill-opacity:1;" d="M 22.1875 2.5 C 18.902344 2.5 15.753906 3.804688 13.429688 6.128906 L 8.390625 11.167969 L 5.488281 10.925781 L 2.308594 14.8125 L 4.820313 15.890625 L 4.9375 16.007813 L 4.15625 17.726563 L 4.40625 17.96875 C 3.917969 18.574219 3.65625 19.359375 3.492188 20.023438 C 3.3125 20.78125 3.273438 21.398438 3.273438 21.398438 L 3.246094 21.753906 L 3.601563 21.730469 C 3.601563 21.730469 4.21875 21.6875 4.976563 21.507813 C 5.640625 21.34375 6.425781 21.082031 7.03125 20.597656 L 7.273438 20.84375 L 8.992188 20.0625 L 9.113281 20.179688 L 10.1875 22.691406 L 14.074219 19.511719 L 13.832031 16.609375 L 18.875 11.570313 C 21.195313 9.246094 22.5 6.097656 22.5 2.8125 L 22.5 2.5 Z M 21.839844 3.160156 C 21.75 6.152344 20.554688 9.003906 18.429688 11.125 L 13.1875 16.371094 L 13.1875 16.375 C 13.148438 16.429688 13.125 16.496094 13.125 16.5625 C 13.125 16.648438 13.160156 16.726563 13.222656 16.789063 L 13.425781 19.238281 L 10.4375 21.683594 L 9.640625 19.820313 L 9.132813 19.3125 L 7.414063 20.09375 L 4.90625 17.585938 L 5.6875 15.867188 L 5.179688 15.359375 L 3.316406 14.5625 L 5.761719 11.574219 L 8.210938 11.777344 C 8.269531 11.839844 8.351563 11.875 8.4375 11.875 C 8.503906 11.875 8.570313 11.851563 8.625 11.8125 L 8.628906 11.8125 L 13.871094 6.570313 C 15.996094 4.445313 18.847656 3.25 21.839844 3.160156 Z M 18.75 5.9375 C 18.578125 5.9375 18.4375 6.078125 18.4375 6.25 C 18.4375 6.421875 18.578125 6.5625 18.75 6.5625 C 18.921875 6.5625 19.0625 6.421875 19.0625 6.25 C 19.0625 6.078125 18.921875 5.9375 18.75 5.9375 Z M 16.5625 6.5625 C 15.53125 6.5625 14.6875 7.40625 14.6875 8.4375 C 14.6875 9.46875 15.53125 10.3125 16.5625 10.3125 C 17.59375 10.3125 18.4375 9.46875 18.4375 8.4375 C 18.4375 7.40625 17.59375 6.5625 16.5625 6.5625 Z M 16.5625 7.1875 C 17.257813 7.1875 17.8125 7.742188 17.8125 8.4375 C 17.8125 9.132813 17.257813 9.6875 16.5625 9.6875 C 15.867188 9.6875 15.3125 9.132813 15.3125 8.4375 C 15.3125 7.742188 15.867188 7.1875 16.5625 7.1875 Z M 14.375 10.3125 C 14.203125 10.3125 14.0625 10.453125 14.0625 10.625 C 14.0625 10.796875 14.203125 10.9375 14.375 10.9375 C 14.546875 10.9375 14.6875 10.796875 14.6875 10.625 C 14.6875 10.453125 14.546875 10.3125 14.375 10.3125 Z M 7.5 12.1875 C 7.328125 12.1875 7.1875 12.328125 7.1875 12.5 C 7.1875 12.671875 7.328125 12.8125 7.5 12.8125 C 7.671875 12.8125 7.8125 12.671875 7.8125 12.5 C 7.8125 12.328125 7.671875 12.1875 7.5 12.1875 Z M 6.5625 13.125 C 6.390625 13.125 6.25 13.265625 6.25 13.4375 C 6.25 13.609375 6.390625 13.75 6.5625 13.75 C 6.734375 13.75 6.875 13.609375 6.875 13.4375 C 6.875 13.265625 6.734375 13.125 6.5625 13.125 Z M 5.625 14.0625 C 5.453125 14.0625 5.3125 14.203125 5.3125 14.375 C 5.3125 14.546875 5.453125 14.6875 5.625 14.6875 C 5.796875 14.6875 5.9375 14.546875 5.9375 14.375 C 5.9375 14.203125 5.796875 14.0625 5.625 14.0625 Z M 12.5 17.1875 C 12.328125 17.1875 12.1875 17.328125 12.1875 17.5 C 12.1875 17.671875 12.328125 17.8125 12.5 17.8125 C 12.671875 17.8125 12.8125 17.671875 12.8125 17.5 C 12.8125 17.328125 12.671875 17.1875 12.5 17.1875 Z M 11.5625 18.125 C 11.390625 18.125 11.25 18.265625 11.25 18.4375 C 11.25 18.609375 11.390625 18.75 11.5625 18.75 C 11.734375 18.75 11.875 18.609375 11.875 18.4375 C 11.875 18.265625 11.734375 18.125 11.5625 18.125 Z M 4.851563 18.417969 L 5.304688 18.871094 C 4.957031 19.414063 4.6875 20.3125 4.6875 20.3125 C 4.6875 20.3125 5.585938 20.042969 6.128906 19.695313 L 6.582031 20.148438 C 6.101563 20.507813 5.421875 20.753906 4.828125 20.898438 C 4.347656 21.015625 4.171875 21.019531 3.960938 21.042969 C 3.980469 20.828125 3.984375 20.652344 4.101563 20.171875 C 4.246094 19.578125 4.492188 18.898438 4.851563 18.417969 Z M 10.625 19.0625 C 10.453125 19.0625 10.3125 19.203125 10.3125 19.375 C 10.3125 19.546875 10.453125 19.6875 10.625 19.6875 C 10.796875 19.6875 10.9375 19.546875 10.9375 19.375 C 10.9375 19.203125 10.796875 19.0625 10.625 19.0625 Z "/>
</g>
</svg>
